<?xml version="1.0" standalone="no"?>
<!DOCTYPE svg PUBLIC "-//W3C//DTD SVG 20010904//EN"
 "http://www.w3.org/TR/2001/REC-SVG-20010904/DTD/svg10.dtd">
<svg version="1.0" xmlns="http://www.w3.org/2000/svg"
 width="122.000000pt" height="122.000000pt" viewBox="0 0 122.000000 122.000000"
 preserveAspectRatio="xMidYMid meet">
<metadata>
Created by potrace 1.14, written by Peter Selinger 2001-2017
</metadata>
<g transform="translate(0.000000,122.000000) scale(0.100000,-0.100000)"
fill="#000000" stroke="none">
<path d="M534 919 c-44 -44 -78 -86 -76 -92 3 -12 38 -46 393 -391 228 -220
204 -202 226 -178 10 10 47 49 82 85 l64 66 -89 86 c-49 48 -130 127 -180 176
l-92 90 -1 111 c-1 61 -4 115 -7 120 -3 4 -27 8 -55 8 -54 0 -52 2 -49 -77 1
-24 -2 -43 -7 -43 -5 0 -32 24 -60 54 -28 29 -55 56 -61 60 -5 3 -45 -31 -88
-75z"/>
<path d="M324 706 c-43 -41 -76 -77 -74 -80 3 -2 90 -91 194 -196 l189 -191
72 68 c40 37 75 73 78 79 4 8 -276 301 -361 377 -20 18 -22 17 -98 -57z"/>
<path d="M118 490 l-67 -67 92 -94 92 -94 68 67 c37 37 67 71 67 75 0 9 -172
184 -180 182 -3 -1 -35 -32 -72 -69z"/>
</g>
</svg>
